ISO-10303-21;
HEADER;
/* Generated by software containing ST-Developer
 * from STEP Tools, Inc. (www.steptools.com) 
 */

FILE_DESCRIPTION(
/* description */ ('STEP AP214'),
/* implementation_level */ '2;1');

FILE_NAME(
/* name */ 'COUPLING_CUSTOM.step',
/* time_stamp */ '2026-08-09T13:43:13+05:30',
/* author */ (''),
/* organization */ (''),
/* preprocessor_version */ 'ST-DEVELOPER v20.1',
/* originating_system */ 'Autodesk Translation Framework v15.8.0.0',
/* authorisation */ '');

FILE_SCHEMA (('AUTOMOTIVE_DESIGN { 1 0 10303 214 3 1 1 }'));
ENDSEC;

DATA;
#10=MECHANICAL_DESIGN_GEOMETRIC_PRESENTATION_REPRESENTATION('',(#13),#1017);
#11=SHAPE_REPRESENTATION_RELATIONSHIP('SRR','None',#1024,#12);
#12=ADVANCED_BREP_SHAPE_REPRESENTATION('',(#14),#1016);
#13=STYLED_ITEM('',(#1034),#14);
#14=MANIFOLD_SOLID_BREP('Body1',#514);
#15=PLANE('',#590);
#16=PLANE('',#591);
#17=PLANE('',#592);
#18=PLANE('',#593);
#19=PLANE('',#594);
#20=PLANE('',#595);
#21=PLANE('',#596);
#22=PLANE('',#597);
#23=PLANE('',#598);
#24=FACE_BOUND('',#153,.T.);
#25=FACE_BOUND('',#156,.T.);
#26=FACE_BOUND('',#159,.T.);
#27=FACE_BOUND('',#165,.T.);
#28=FACE_BOUND('',#166,.T.);
#29=FACE_BOUND('',#167,.T.);
#30=FACE_BOUND('',#168,.T.);
#31=FACE_BOUND('',#170,.T.);
#32=FACE_BOUND('',#171,.T.);
#33=FACE_BOUND('',#172,.T.);
#34=FACE_BOUND('',#173,.T.);
#35=FACE_BOUND('',#174,.T.);
#36=FACE_BOUND('',#175,.T.);
#37=FACE_BOUND('',#176,.T.);
#38=FACE_BOUND('',#178,.T.);
#39=FACE_BOUND('',#180,.T.);
#40=FACE_BOUND('',#182,.T.);
#41=FACE_BOUND('',#184,.T.);
#42=FACE_BOUND('',#186,.T.);
#43=FACE_BOUND('',#188,.T.);
#44=B_SPLINE_CURVE_WITH_KNOTS('',3,(#816,#817,#818,#819,#820,#821,#822,
#823,#824,#825,#826,#827,#828,#829,#830,#831,#832,#833),.UNSPECIFIED.,.F.,
 .F.,(4,2,2,2,2,2,2,2,4),(0.452161708063848,0.480421823471818,0.508681938879788,
0.536942036979799,0.56520213507981,0.59346223317982,0.621722331279831,0.649982446687801,
0.678242562095771),.UNSPECIFIED.);
#45=B_SPLINE_CURVE_WITH_KNOTS('',3,(#834,#835,#836,#837,#838,#839,#840,
#841,#842,#843,#844,#845,#846,#847,#848,#849,#850,#851),.UNSPECIFIED.,.F.,
 .F.,(4,2,2,2,2,2,2,2,4),(0.226080854031924,0.254340969439894,0.282601084847865,
0.310861182947875,0.339121281047886,0.367381379147896,0.395641477247907,
0.423901592655877,0.452161708063848),.UNSPECIFIED.);
#46=B_SPLINE_CURVE_WITH_KNOTS('',3,(#860,#861,#862,#863,#864,#865,#866,
#867,#868,#869,#870,#871,#872,#873,#874,#875,#876,#877),.UNSPECIFIED.,.F.,
 .F.,(4,2,2,2,2,2,2,2,4),(0.565202135079808,0.593462233179819,0.621722331279829,
0.6499824466878,0.67824256209577,0.70650267750374,0.734762792911711,0.763022891011721,
0.791282989111732),.UNSPECIFIED.);
#47=B_SPLINE_CURVE_WITH_KNOTS('',3,(#878,#879,#880,#881,#882,#883,#884,
#885,#886,#887,#888,#889,#890,#891,#892,#893,#894,#895,#896),
 .UNSPECIFIED.,.F.,.F.,(4,2,2,2,3,2,2,2,4),(0.339121281047885,0.367381379147896,
0.395641477247906,0.423901592655876,0.452161708063847,0.480421823471817,
0.508681938879787,0.536942036979798,0.565202135079808),.UNSPECIFIED.);
#48=B_SPLINE_CURVE_WITH_KNOTS('',3,(#905,#906,#907,#908),.UNSPECIFIED.,
 .F.,.F.,(4,4),(-2.19276325832189E-5,0.),.UNSPECIFIED.);
#49=B_SPLINE_CURVE_WITH_KNOTS('',3,(#909,#910,#911,#912,#913,#914,#915,
#916,#917,#918,#919,#920,#921,#922,#923,#924,#925,#926,#927,#928,#929,#930,
#931,#932,#933,#934,#935,#936,#937,#938,#939,#940,#941,#942),
 .UNSPECIFIED.,.F.,.F.,(4,2,2,2,2,2,2,2,2,2,2,2,2,2,2,2,4),(0.,0.0282601154079704,
0.0565202308159408,0.0847803289159513,0.113040427015962,0.141300525115972,
0.169560623215983,0.197820738623953,0.226080854031924,0.254340969439894,
0.282601084847865,0.310861182947875,0.339121281047886,0.367381379147896,
0.395641477247907,0.423901592655877,0.452139780431264),.UNSPECIFIED.);
#50=LINE('',#798,#71);
#51=LINE('',#801,#72);
#52=LINE('',#804,#73);
#53=LINE('',#810,#74);
#54=LINE('',#814,#75);
#55=LINE('',#855,#76);
#56=LINE('',#858,#77);
#57=LINE('',#900,#78);
#58=LINE('',#903,#79);
#59=LINE('',#947,#80);
#60=LINE('',#953,#81);
#61=LINE('',#959,#82);
#62=LINE('',#965,#83);
#63=LINE('',#971,#84);
#64=LINE('',#977,#85);
#65=LINE('',#983,#86);
#66=LINE('',#989,#87);
#67=LINE('',#995,#88);
#68=LINE('',#1001,#89);
#69=LINE('',#1005,#90);
#70=LINE('',#1011,#91);
#71=VECTOR('',#639,1000.);
#72=VECTOR('',#642,1000.);
#73=VECTOR('',#645,0.750000000000001);
#74=VECTOR('',#652,0.75);
#75=VECTOR('',#657,0.750000000000002);
#76=VECTOR('',#662,0.750000000000002);
#77=VECTOR('',#665,0.750000000000001);
#78=VECTOR('',#670,0.750000000000001);
#79=VECTOR('',#673,0.750000000000002);
#80=VECTOR('',#678,12.5);
#81=VECTOR('',#685,11.5);
#82=VECTOR('',#692,12.5);
#83=VECTOR('',#699,11.5);
#84=VECTOR('',#706,12.5);
#85=VECTOR('',#713,11.5);
#86=VECTOR('',#720,1.60000000000112);
#87=VECTOR('',#727,1.60000000000076);
#88=VECTOR('',#734,1.6);
#89=VECTOR('',#741,29.);
#90=VECTOR('',#748,1000.);
#91=VECTOR('',#759,1000.);
#92=CYLINDRICAL_SURFACE('',#545,3.);
#93=CYLINDRICAL_SURFACE('',#548,0.750000000000001);
#94=CYLINDRICAL_SURFACE('',#550,0.75);
#95=CYLINDRICAL_SURFACE('',#553,0.750000000000002);
#96=CYLINDRICAL_SURFACE('',#554,0.750000000000002);
#97=CYLINDRICAL_SURFACE('',#556,0.750000000000001);
#98=CYLINDRICAL_SURFACE('',#557,0.750000000000001);
#99=CYLINDRICAL_SURFACE('',#559,0.750000000000002);
#100=CYLINDRICAL_SURFACE('',#560,12.5);
#101=CYLINDRICAL_SURFACE('',#563,11.5);
#102=CYLINDRICAL_SURFACE('',#566,12.5);
#103=CYLINDRICAL_SURFACE('',#569,11.5);
#104=CYLINDRICAL_SURFACE('',#572,12.5);
#105=CYLINDRICAL_SURFACE('',#575,11.5);
#106=CYLINDRICAL_SURFACE('',#578,1.60000000000112);
#107=CYLINDRICAL_SURFACE('',#581,1.60000000000076);
#108=CYLINDRICAL_SURFACE('',#584,1.6);
#109=CYLINDRICAL_SURFACE('',#587,29.);
#110=FACE_OUTER_BOUND('',#140,.T.);
#111=FACE_OUTER_BOUND('',#141,.T.);
#112=FACE_OUTER_BOUND('',#142,.T.);
#113=FACE_OUTER_BOUND('',#143,.T.);
#114=FACE_OUTER_BOUND('',#144,.T.);
#115=FACE_OUTER_BOUND('',#145,.T.);
#116=FACE_OUTER_BOUND('',#146,.T.);
#117=FACE_OUTER_BOUND('',#147,.T.);
#118=FACE_OUTER_BOUND('',#148,.T.);
#119=FACE_OUTER_BOUND('',#149,.T.);
#120=FACE_OUTER_BOUND('',#150,.T.);
#121=FACE_OUTER_BOUND('',#151,.T.);
#122=FACE_OUTER_BOUND('',#152,.T.);
#123=FACE_OUTER_BOUND('',#154,.T.);
#124=FACE_OUTER_BOUND('',#155,.T.);
#125=FACE_OUTER_BOUND('',#157,.T.);
#126=FACE_OUTER_BOUND('',#158,.T.);
#127=FACE_OUTER_BOUND('',#160,.T.);
#128=FACE_OUTER_BOUND('',#161,.T.);
#129=FACE_OUTER_BOUND('',#162,.T.);
#130=FACE_OUTER_BOUND('',#163,.T.);
#131=FACE_OUTER_BOUND('',#164,.T.);
#132=FACE_OUTER_BOUND('',#169,.T.);
#133=FACE_OUTER_BOUND('',#177,.T.);
#134=FACE_OUTER_BOUND('',#179,.T.);
#135=FACE_OUTER_BOUND('',#181,.T.);
#136=FACE_OUTER_BOUND('',#183,.T.);
#137=FACE_OUTER_BOUND('',#185,.T.);
#138=FACE_OUTER_BOUND('',#187,.T.);
#139=FACE_OUTER_BOUND('',#189,.T.);
#140=EDGE_LOOP('',(#345,#346,#347,#348,#349,#350));
#141=EDGE_LOOP('',(#351,#352,#353,#354,#355,#356));
#142=EDGE_LOOP('',(#357,#358,#359,#360,#361));
#143=EDGE_LOOP('',(#362,#363,#364,#365));
#144=EDGE_LOOP('',(#366,#367,#368,#369,#370));
#145=EDGE_LOOP('',(#371,#372,#373,#374,#375,#376));
#146=EDGE_LOOP('',(#377,#378,#379,#380,#381,#382));
#147=EDGE_LOOP('',(#383,#384,#385,#386,#387));
#148=EDGE_LOOP('',(#388,#389,#390,#391,#392));
#149=EDGE_LOOP('',(#393,#394,#395,#396,#397));
#150=EDGE_LOOP('',(#398,#399,#400,#401,#402,#403));
#151=EDGE_LOOP('',(#404,#405,#406,#407));
#152=EDGE_LOOP('',(#408,#409,#410,#411));
#153=EDGE_LOOP('',(#412,#413));
#154=EDGE_LOOP('',(#414,#415,#416,#417));
#155=EDGE_LOOP('',(#418,#419,#420,#421));
#156=EDGE_LOOP('',(#422,#423));
#157=EDGE_LOOP('',(#424,#425,#426,#427));
#158=EDGE_LOOP('',(#428,#429,#430,#431));
#159=EDGE_LOOP('',(#432,#433));
#160=EDGE_LOOP('',(#434,#435,#436,#437));
#161=EDGE_LOOP('',(#438,#439,#440,#441));
#162=EDGE_LOOP('',(#442,#443,#444,#445));
#163=EDGE_LOOP('',(#446,#447,#448,#449));
#164=EDGE_LOOP('',(#450));
#165=EDGE_LOOP('',(#451));
#166=EDGE_LOOP('',(#452));
#167=EDGE_LOOP('',(#453));
#168=EDGE_LOOP('',(#454));
#169=EDGE_LOOP('',(#455));
#170=EDGE_LOOP('',(#456));
#171=EDGE_LOOP('',(#457));
#172=EDGE_LOOP('',(#458));
#173=EDGE_LOOP('',(#459,#460));
#174=EDGE_LOOP('',(#461));
#175=EDGE_LOOP('',(#462));
#176=EDGE_LOOP('',(#463));
#177=EDGE_LOOP('',(#464));
#178=EDGE_LOOP('',(#465));
#179=EDGE_LOOP('',(#466));
#180=EDGE_LOOP('',(#467));
#181=EDGE_LOOP('',(#468));
#182=EDGE_LOOP('',(#469));
#183=EDGE_LOOP('',(#470));
#184=EDGE_LOOP('',(#471));
#185=EDGE_LOOP('',(#472));
#186=EDGE_LOOP('',(#473,#474));
#187=EDGE_LOOP('',(#475));
#188=EDGE_LOOP('',(#476));
#189=EDGE_LOOP('',(#477,#478,#479,#480));
#190=CIRCLE('',#529,0.75);
#191=CIRCLE('',#530,0.24999927215047);
#192=CIRCLE('',#531,0.75);
#193=CIRCLE('',#532,0.75);
#194=CIRCLE('',#533,0.75);
#195=CIRCLE('',#535,0.750000000000002);
#196=CIRCLE('',#536,0.750000000000002);
#197=CIRCLE('',#537,0.249999999999998);
#198=CIRCLE('',#538,0.750000000000002);
#199=CIRCLE('',#539,0.750000000000002);
#200=CIRCLE('',#541,0.750000000000001);
#201=CIRCLE('',#542,0.750000000000001);
#202=CIRCLE('',#543,0.249999999999997);
#203=CIRCLE('',#544,0.750000000000001);
#204=CIRCLE('',#546,3.);
#205=CIRCLE('',#547,3.);
#206=CIRCLE('',#549,0.75);
#207=CIRCLE('',#551,0.75);
#208=CIRCLE('',#552,0.750000000000002);
#209=CIRCLE('',#555,0.750000000000002);
#210=CIRCLE('',#558,0.750000000000001);
#211=CIRCLE('',#561,12.5);
#212=CIRCLE('',#562,12.5);
#213=CIRCLE('',#564,11.5);
#214=CIRCLE('',#565,11.5);
#215=CIRCLE('',#567,12.5);
#216=CIRCLE('',#568,12.5);
#217=CIRCLE('',#570,11.5);
#218=CIRCLE('',#571,11.5);
#219=CIRCLE('',#573,12.5);
#220=CIRCLE('',#574,12.5);
#221=CIRCLE('',#576,11.5);
#222=CIRCLE('',#577,11.5);
#223=CIRCLE('',#579,1.60000000000112);
#224=CIRCLE('',#580,1.60000000000112);
#225=CIRCLE('',#582,1.60000000000076);
#226=CIRCLE('',#583,1.60000000000076);
#227=CIRCLE('',#585,1.6);
#228=CIRCLE('',#586,1.6);
#229=CIRCLE('',#588,29.);
#230=CIRCLE('',#589,29.);
#231=VERTEX_POINT('',#766);
#232=VERTEX_POINT('',#767);
#233=VERTEX_POINT('',#769);
#234=VERTEX_POINT('',#771);
#235=VERTEX_POINT('',#776);
#236=VERTEX_POINT('',#777);
#237=VERTEX_POINT('',#780);
#238=VERTEX_POINT('',#782);
#239=VERTEX_POINT('',#786);
#240=VERTEX_POINT('',#787);
#241=VERTEX_POINT('',#790);
#242=VERTEX_POINT('',#794);
#243=VERTEX_POINT('',#795);
#244=VERTEX_POINT('',#797);
#245=VERTEX_POINT('',#799);
#246=VERTEX_POINT('',#803);
#247=VERTEX_POINT('',#807);
#248=VERTEX_POINT('',#808);
#249=VERTEX_POINT('',#813);
#250=VERTEX_POINT('',#815);
#251=VERTEX_POINT('',#853);
#252=VERTEX_POINT('',#857);
#253=VERTEX_POINT('',#859);
#254=VERTEX_POINT('',#898);
#255=VERTEX_POINT('',#902);
#256=VERTEX_POINT('',#904);
#257=VERTEX_POINT('',#944);
#258=VERTEX_POINT('',#946);
#259=VERTEX_POINT('',#950);
#260=VERTEX_POINT('',#952);
#261=VERTEX_POINT('',#956);
#262=VERTEX_POINT('',#958);
#263=VERTEX_POINT('',#962);
#264=VERTEX_POINT('',#964);
#265=VERTEX_POINT('',#968);
#266=VERTEX_POINT('',#970);
#267=VERTEX_POINT('',#974);
#268=VERTEX_POINT('',#976);
#269=VERTEX_POINT('',#980);
#270=VERTEX_POINT('',#982);
#271=VERTEX_POINT('',#986);
#272=VERTEX_POINT('',#988);
#273=VERTEX_POINT('',#992);
#274=VERTEX_POINT('',#994);
#275=VERTEX_POINT('',#998);
#276=VERTEX_POINT('',#1000);
#277=EDGE_CURVE('',#231,#232,#190,.T.);
#278=EDGE_CURVE('',#232,#233,#191,.T.);
#279=EDGE_CURVE('',#234,#233,#192,.T.);
#280=EDGE_CURVE('',#233,#234,#193,.T.);
#281=EDGE_CURVE('',#232,#231,#194,.T.);
#282=EDGE_CURVE('',#235,#236,#195,.T.);
#283=EDGE_CURVE('',#236,#235,#196,.T.);
#284=EDGE_CURVE('',#236,#237,#197,.T.);
#285=EDGE_CURVE('',#237,#238,#198,.T.);
#286=EDGE_CURVE('',#238,#237,#199,.T.);
#287=EDGE_CURVE('',#239,#240,#200,.T.);
#288=EDGE_CURVE('',#240,#239,#201,.T.);
#289=EDGE_CURVE('',#240,#241,#202,.T.);
#290=EDGE_CURVE('',#241,#241,#203,.T.);
#291=EDGE_CURVE('',#242,#243,#204,.T.);
#292=EDGE_CURVE('',#242,#244,#50,.T.);
#293=EDGE_CURVE('',#244,#245,#205,.T.);
#294=EDGE_CURVE('',#243,#245,#51,.T.);
#295=EDGE_CURVE('',#234,#246,#52,.T.);
#296=EDGE_CURVE('',#246,#246,#206,.T.);
#297=EDGE_CURVE('',#247,#248,#207,.T.);
#298=EDGE_CURVE('',#248,#231,#53,.T.);
#299=EDGE_CURVE('',#248,#247,#208,.T.);
#300=EDGE_CURVE('',#238,#249,#54,.T.);
#301=EDGE_CURVE('',#249,#250,#44,.T.);
#302=EDGE_CURVE('',#250,#249,#45,.T.);
#303=EDGE_CURVE('',#251,#251,#209,.T.);
#304=EDGE_CURVE('',#251,#235,#55,.T.);
#305=EDGE_CURVE('',#241,#252,#56,.T.);
#306=EDGE_CURVE('',#252,#253,#46,.T.);
#307=EDGE_CURVE('',#253,#252,#47,.T.);
#308=EDGE_CURVE('',#254,#254,#210,.T.);
#309=EDGE_CURVE('',#254,#239,#57,.T.);
#310=EDGE_CURVE('',#247,#255,#58,.T.);
#311=EDGE_CURVE('',#256,#255,#48,.T.);
#312=EDGE_CURVE('',#255,#256,#49,.T.);
#313=EDGE_CURVE('',#257,#257,#211,.T.);
#314=EDGE_CURVE('',#257,#258,#59,.T.);
#315=EDGE_CURVE('',#258,#258,#212,.T.);
#316=EDGE_CURVE('',#259,#259,#213,.T.);
#317=EDGE_CURVE('',#259,#260,#60,.T.);
#318=EDGE_CURVE('',#260,#260,#214,.T.);
#319=EDGE_CURVE('',#261,#261,#215,.T.);
#320=EDGE_CURVE('',#261,#262,#61,.T.);
#321=EDGE_CURVE('',#262,#262,#216,.T.);
#322=EDGE_CURVE('',#263,#263,#217,.T.);
#323=EDGE_CURVE('',#263,#264,#62,.T.);
#324=EDGE_CURVE('',#264,#264,#218,.T.);
#325=EDGE_CURVE('',#265,#265,#219,.T.);
#326=EDGE_CURVE('',#265,#266,#63,.T.);
#327=EDGE_CURVE('',#266,#266,#220,.T.);
#328=EDGE_CURVE('',#267,#267,#221,.T.);
#329=EDGE_CURVE('',#267,#268,#64,.T.);
#330=EDGE_CURVE('',#268,#268,#222,.T.);
#331=EDGE_CURVE('',#269,#269,#223,.T.);
#332=EDGE_CURVE('',#269,#270,#65,.T.);
#333=EDGE_CURVE('',#270,#270,#224,.T.);
#334=EDGE_CURVE('',#271,#271,#225,.T.);
#335=EDGE_CURVE('',#271,#272,#66,.T.);
#336=EDGE_CURVE('',#272,#272,#226,.T.);
#337=EDGE_CURVE('',#273,#273,#227,.T.);
#338=EDGE_CURVE('',#273,#274,#67,.T.);
#339=EDGE_CURVE('',#274,#274,#228,.T.);
#340=EDGE_CURVE('',#275,#275,#229,.T.);
#341=EDGE_CURVE('',#275,#276,#68,.T.);
#342=EDGE_CURVE('',#276,#276,#230,.T.);
#343=EDGE_CURVE('',#243,#242,#69,.T.);
#344=EDGE_CURVE('',#245,#244,#70,.T.);
#345=ORIENTED_EDGE('',*,*,#277,.T.);
#346=ORIENTED_EDGE('',*,*,#278,.T.);
#347=ORIENTED_EDGE('',*,*,#279,.F.);
#348=ORIENTED_EDGE('',*,*,#280,.F.);
#349=ORIENTED_EDGE('',*,*,#278,.F.);
#350=ORIENTED_EDGE('',*,*,#281,.T.);
#351=ORIENTED_EDGE('',*,*,#282,.F.);
#352=ORIENTED_EDGE('',*,*,#283,.F.);
#353=ORIENTED_EDGE('',*,*,#284,.T.);
#354=ORIENTED_EDGE('',*,*,#285,.T.);
#355=ORIENTED_EDGE('',*,*,#286,.T.);
#356=ORIENTED_EDGE('',*,*,#284,.F.);
#357=ORIENTED_EDGE('',*,*,#287,.F.);
#358=ORIENTED_EDGE('',*,*,#288,.F.);
#359=ORIENTED_EDGE('',*,*,#289,.T.);
#360=ORIENTED_EDGE('',*,*,#290,.T.);
#361=ORIENTED_EDGE('',*,*,#289,.F.);
#362=ORIENTED_EDGE('',*,*,#291,.F.);
#363=ORIENTED_EDGE('',*,*,#292,.T.);
#364=ORIENTED_EDGE('',*,*,#293,.T.);
#365=ORIENTED_EDGE('',*,*,#294,.F.);
#366=ORIENTED_EDGE('',*,*,#280,.T.);
#367=ORIENTED_EDGE('',*,*,#295,.T.);
#368=ORIENTED_EDGE('',*,*,#296,.F.);
#369=ORIENTED_EDGE('',*,*,#295,.F.);
#370=ORIENTED_EDGE('',*,*,#279,.T.);
#371=ORIENTED_EDGE('',*,*,#297,.T.);
#372=ORIENTED_EDGE('',*,*,#298,.T.);
#373=ORIENTED_EDGE('',*,*,#281,.F.);
#374=ORIENTED_EDGE('',*,*,#277,.F.);
#375=ORIENTED_EDGE('',*,*,#298,.F.);
#376=ORIENTED_EDGE('',*,*,#299,.T.);
#377=ORIENTED_EDGE('',*,*,#285,.F.);
#378=ORIENTED_EDGE('',*,*,#286,.F.);
#379=ORIENTED_EDGE('',*,*,#300,.T.);
#380=ORIENTED_EDGE('',*,*,#301,.T.);
#381=ORIENTED_EDGE('',*,*,#302,.T.);
#382=ORIENTED_EDGE('',*,*,#300,.F.);
#383=ORIENTED_EDGE('',*,*,#303,.T.);
#384=ORIENTED_EDGE('',*,*,#304,.T.);
#385=ORIENTED_EDGE('',*,*,#282,.T.);
#386=ORIENTED_EDGE('',*,*,#283,.T.);
#387=ORIENTED_EDGE('',*,*,#304,.F.);
#388=ORIENTED_EDGE('',*,*,#290,.F.);
#389=ORIENTED_EDGE('',*,*,#305,.T.);
#390=ORIENTED_EDGE('',*,*,#306,.T.);
#391=ORIENTED_EDGE('',*,*,#307,.T.);
#392=ORIENTED_EDGE('',*,*,#305,.F.);
#393=ORIENTED_EDGE('',*,*,#308,.T.);
#394=ORIENTED_EDGE('',*,*,#309,.T.);
#395=ORIENTED_EDGE('',*,*,#287,.T.);
#396=ORIENTED_EDGE('',*,*,#288,.T.);
#397=ORIENTED_EDGE('',*,*,#309,.F.);
#398=ORIENTED_EDGE('',*,*,#297,.F.);
#399=ORIENTED_EDGE('',*,*,#310,.T.);
#400=ORIENTED_EDGE('',*,*,#311,.F.);
#401=ORIENTED_EDGE('',*,*,#312,.F.);
#402=ORIENTED_EDGE('',*,*,#310,.F.);
#403=ORIENTED_EDGE('',*,*,#299,.F.);
#404=ORIENTED_EDGE('',*,*,#313,.T.);
#405=ORIENTED_EDGE('',*,*,#314,.T.);
#406=ORIENTED_EDGE('',*,*,#315,.F.);
#407=ORIENTED_EDGE('',*,*,#314,.F.);
#408=ORIENTED_EDGE('',*,*,#316,.T.);
#409=ORIENTED_EDGE('',*,*,#317,.T.);
#410=ORIENTED_EDGE('',*,*,#318,.F.);
#411=ORIENTED_EDGE('',*,*,#317,.F.);
#412=ORIENTED_EDGE('',*,*,#311,.T.);
#413=ORIENTED_EDGE('',*,*,#312,.T.);
#414=ORIENTED_EDGE('',*,*,#319,.T.);
#415=ORIENTED_EDGE('',*,*,#320,.T.);
#416=ORIENTED_EDGE('',*,*,#321,.F.);
#417=ORIENTED_EDGE('',*,*,#320,.F.);
#418=ORIENTED_EDGE('',*,*,#322,.T.);
#419=ORIENTED_EDGE('',*,*,#323,.T.);
#420=ORIENTED_EDGE('',*,*,#324,.F.);
#421=ORIENTED_EDGE('',*,*,#323,.F.);
#422=ORIENTED_EDGE('',*,*,#302,.F.);
#423=ORIENTED_EDGE('',*,*,#301,.F.);
#424=ORIENTED_EDGE('',*,*,#325,.T.);
#425=ORIENTED_EDGE('',*,*,#326,.T.);
#426=ORIENTED_EDGE('',*,*,#327,.F.);
#427=ORIENTED_EDGE('',*,*,#326,.F.);
#428=ORIENTED_EDGE('',*,*,#328,.T.);
#429=ORIENTED_EDGE('',*,*,#329,.T.);
#430=ORIENTED_EDGE('',*,*,#330,.F.);
#431=ORIENTED_EDGE('',*,*,#329,.F.);
#432=ORIENTED_EDGE('',*,*,#307,.F.);
#433=ORIENTED_EDGE('',*,*,#306,.F.);
#434=ORIENTED_EDGE('',*,*,#331,.T.);
#435=ORIENTED_EDGE('',*,*,#332,.T.);
#436=ORIENTED_EDGE('',*,*,#333,.F.);
#437=ORIENTED_EDGE('',*,*,#332,.F.);
#438=ORIENTED_EDGE('',*,*,#334,.T.);
#439=ORIENTED_EDGE('',*,*,#335,.T.);
#440=ORIENTED_EDGE('',*,*,#336,.F.);
#441=ORIENTED_EDGE('',*,*,#335,.F.);
#442=ORIENTED_EDGE('',*,*,#337,.T.);
#443=ORIENTED_EDGE('',*,*,#338,.T.);
#444=ORIENTED_EDGE('',*,*,#339,.F.);
#445=ORIENTED_EDGE('',*,*,#338,.F.);
#446=ORIENTED_EDGE('',*,*,#340,.T.);
#447=ORIENTED_EDGE('',*,*,#341,.T.);
#448=ORIENTED_EDGE('',*,*,#342,.F.);
#449=ORIENTED_EDGE('',*,*,#341,.F.);
#450=ORIENTED_EDGE('',*,*,#342,.T.);
#451=ORIENTED_EDGE('',*,*,#337,.F.);
#452=ORIENTED_EDGE('',*,*,#331,.F.);
#453=ORIENTED_EDGE('',*,*,#328,.F.);
#454=ORIENTED_EDGE('',*,*,#334,.F.);
#455=ORIENTED_EDGE('',*,*,#340,.F.);
#456=ORIENTED_EDGE('',*,*,#339,.T.);
#457=ORIENTED_EDGE('',*,*,#336,.T.);
#458=ORIENTED_EDGE('',*,*,#333,.T.);
#459=ORIENTED_EDGE('',*,*,#343,.T.);
#460=ORIENTED_EDGE('',*,*,#291,.T.);
#461=ORIENTED_EDGE('',*,*,#296,.T.);
#462=ORIENTED_EDGE('',*,*,#303,.F.);
#463=ORIENTED_EDGE('',*,*,#308,.F.);
#464=ORIENTED_EDGE('',*,*,#327,.T.);
#465=ORIENTED_EDGE('',*,*,#322,.F.);
#466=ORIENTED_EDGE('',*,*,#325,.F.);
#467=ORIENTED_EDGE('',*,*,#330,.T.);
#468=ORIENTED_EDGE('',*,*,#321,.T.);
#469=ORIENTED_EDGE('',*,*,#316,.F.);
#470=ORIENTED_EDGE('',*,*,#319,.F.);
#471=ORIENTED_EDGE('',*,*,#324,.T.);
#472=ORIENTED_EDGE('',*,*,#315,.T.);
#473=ORIENTED_EDGE('',*,*,#293,.F.);
#474=ORIENTED_EDGE('',*,*,#344,.F.);
#475=ORIENTED_EDGE('',*,*,#313,.F.);
#476=ORIENTED_EDGE('',*,*,#318,.T.);
#477=ORIENTED_EDGE('',*,*,#344,.T.);
#478=ORIENTED_EDGE('',*,*,#292,.F.);
#479=ORIENTED_EDGE('',*,*,#343,.F.);
#480=ORIENTED_EDGE('',*,*,#294,.T.);
#481=TOROIDAL_SURFACE('',#528,0.99999927215047,0.75);
#482=TOROIDAL_SURFACE('',#534,1.,0.750000000000002);
#483=TOROIDAL_SURFACE('',#540,0.999999999999998,0.750000000000001);
#484=ADVANCED_FACE('',(#110),#481,.F.);
#485=ADVANCED_FACE('',(#111),#482,.F.);
#486=ADVANCED_FACE('',(#112),#483,.F.);
#487=ADVANCED_FACE('',(#113),#92,.F.);
#488=ADVANCED_FACE('',(#114),#93,.F.);
#489=ADVANCED_FACE('',(#115),#94,.F.);
#490=ADVANCED_FACE('',(#116),#95,.F.);
#491=ADVANCED_FACE('',(#117),#96,.F.);
#492=ADVANCED_FACE('',(#118),#97,.F.);
#493=ADVANCED_FACE('',(#119),#98,.F.);
#494=ADVANCED_FACE('',(#120),#99,.F.);
#495=ADVANCED_FACE('',(#121),#100,.T.);
#496=ADVANCED_FACE('',(#122,#24),#101,.T.);
#497=ADVANCED_FACE('',(#123),#102,.T.);
#498=ADVANCED_FACE('',(#124,#25),#103,.T.);
#499=ADVANCED_FACE('',(#125),#104,.T.);
#500=ADVANCED_FACE('',(#126,#26),#105,.T.);
#501=ADVANCED_FACE('',(#127),#106,.F.);
#502=ADVANCED_FACE('',(#128),#107,.F.);
#503=ADVANCED_FACE('',(#129),#108,.F.);
#504=ADVANCED_FACE('',(#130),#109,.T.);
#505=ADVANCED_FACE('',(#131,#27,#28,#29,#30),#15,.T.);
#506=ADVANCED_FACE('',(#132,#31,#32,#33,#34,#35,#36,#37),#16,.F.);
#507=ADVANCED_FACE('',(#133,#38),#17,.T.);
#508=ADVANCED_FACE('',(#134,#39),#18,.F.);
#509=ADVANCED_FACE('',(#135,#40),#19,.T.);
#510=ADVANCED_FACE('',(#136,#41),#20,.F.);
#511=ADVANCED_FACE('',(#137,#42),#21,.T.);
#512=ADVANCED_FACE('',(#138,#43),#22,.F.);
#513=ADVANCED_FACE('',(#139),#23,.F.);
#514=CLOSED_SHELL('',(#484,#485,#486,#487,#488,#489,#490,#491,#492,#493,
#494,#495,#496,#497,#498,#499,#500,#501,#502,#503,#504,#505,#506,#507,#508,
#509,#510,#511,#512,#513));
#515=DERIVED_UNIT_ELEMENT(#517,1.);
#516=DERIVED_UNIT_ELEMENT(#1019,-3.);
#517=(
MASS_UNIT()
NAMED_UNIT(*)
SI_UNIT(.KILO.,.GRAM.)
);
#518=DERIVED_UNIT((#515,#516));
#519=MEASURE_REPRESENTATION_ITEM('density measure',
POSITIVE_RATIO_MEASURE(7850.),#518);
#520=PROPERTY_DEFINITION_REPRESENTATION(#525,#522);
#521=PROPERTY_DEFINITION_REPRESENTATION(#526,#523);
#522=REPRESENTATION('material name',(#524),#1016);
#523=REPRESENTATION('density',(#519),#1016);
#524=DESCRIPTIVE_REPRESENTATION_ITEM('Steel','Steel');
#525=PROPERTY_DEFINITION('material property','material name',#1026);
#526=PROPERTY_DEFINITION('material property','density of part',#1026);
#527=AXIS2_PLACEMENT_3D('',#764,#599,#600);
#528=AXIS2_PLACEMENT_3D('',#765,#601,#602);
#529=AXIS2_PLACEMENT_3D('',#768,#603,#604);
#530=AXIS2_PLACEMENT_3D('',#770,#605,#606);
#531=AXIS2_PLACEMENT_3D('',#772,#607,#608);
#532=AXIS2_PLACEMENT_3D('',#773,#609,#610);
#533=AXIS2_PLACEMENT_3D('',#774,#611,#612);
#534=AXIS2_PLACEMENT_3D('',#775,#613,#614);
#535=AXIS2_PLACEMENT_3D('',#778,#615,#616);
#536=AXIS2_PLACEMENT_3D('',#779,#617,#618);
#537=AXIS2_PLACEMENT_3D('',#781,#619,#620);
#538=AXIS2_PLACEMENT_3D('',#783,#621,#622);
#539=AXIS2_PLACEMENT_3D('',#784,#623,#624);
#540=AXIS2_PLACEMENT_3D('',#785,#625,#626);
#541=AXIS2_PLACEMENT_3D('',#788,#627,#628);
#542=AXIS2_PLACEMENT_3D('',#789,#629,#630);
#543=AXIS2_PLACEMENT_3D('',#791,#631,#632);
#544=AXIS2_PLACEMENT_3D('',#792,#633,#634);
#545=AXIS2_PLACEMENT_3D('',#793,#635,#636);
#546=AXIS2_PLACEMENT_3D('',#796,#637,#638);
#547=AXIS2_PLACEMENT_3D('',#800,#640,#641);
#548=AXIS2_PLACEMENT_3D('',#802,#643,#644);
#549=AXIS2_PLACEMENT_3D('',#805,#646,#647);
#550=AXIS2_PLACEMENT_3D('',#806,#648,#649);
#551=AXIS2_PLACEMENT_3D('',#809,#650,#651);
#552=AXIS2_PLACEMENT_3D('',#811,#653,#654);
#553=AXIS2_PLACEMENT_3D('',#812,#655,#656);
#554=AXIS2_PLACEMENT_3D('',#852,#658,#659);
#555=AXIS2_PLACEMENT_3D('',#854,#660,#661);
#556=AXIS2_PLACEMENT_3D('',#856,#663,#664);
#557=AXIS2_PLACEMENT_3D('',#897,#666,#667);
#558=AXIS2_PLACEMENT_3D('',#899,#668,#669);
#559=AXIS2_PLACEMENT_3D('',#901,#671,#672);
#560=AXIS2_PLACEMENT_3D('',#943,#674,#675);
#561=AXIS2_PLACEMENT_3D('',#945,#676,#677);
#562=AXIS2_PLACEMENT_3D('',#948,#679,#680);
#563=AXIS2_PLACEMENT_3D('',#949,#681,#682);
#564=AXIS2_PLACEMENT_3D('',#951,#683,#684);
#565=AXIS2_PLACEMENT_3D('',#954,#686,#687);
#566=AXIS2_PLACEMENT_3D('',#955,#688,#689);
#567=AXIS2_PLACEMENT_3D('',#957,#690,#691);
#568=AXIS2_PLACEMENT_3D('',#960,#693,#694);
#569=AXIS2_PLACEMENT_3D('',#961,#695,#696);
#570=AXIS2_PLACEMENT_3D('',#963,#697,#698);
#571=AXIS2_PLACEMENT_3D('',#966,#700,#701);
#572=AXIS2_PLACEMENT_3D('',#967,#702,#703);
#573=AXIS2_PLACEMENT_3D('',#969,#704,#705);
#574=AXIS2_PLACEMENT_3D('',#972,#707,#708);
#575=AXIS2_PLACEMENT_3D('',#973,#709,#710);
#576=AXIS2_PLACEMENT_3D('',#975,#711,#712);
#577=AXIS2_PLACEMENT_3D('',#978,#714,#715);
#578=AXIS2_PLACEMENT_3D('',#979,#716,#717);
#579=AXIS2_PLACEMENT_3D('',#981,#718,#719);
#580=AXIS2_PLACEMENT_3D('',#984,#721,#722);
#581=AXIS2_PLACEMENT_3D('',#985,#723,#724);
#582=AXIS2_PLACEMENT_3D('',#987,#725,#726);
#583=AXIS2_PLACEMENT_3D('',#990,#728,#729);
#584=AXIS2_PLACEMENT_3D('',#991,#730,#731);
#585=AXIS2_PLACEMENT_3D('',#993,#732,#733);
#586=AXIS2_PLACEMENT_3D('',#996,#735,#736);
#587=AXIS2_PLACEMENT_3D('',#997,#737,#738);
#588=AXIS2_PLACEMENT_3D('',#999,#739,#740);
#589=AXIS2_PLACEMENT_3D('',#1002,#742,#743);
#590=AXIS2_PLACEMENT_3D('',#1003,#744,#745);
#591=AXIS2_PLACEMENT_3D('',#1004,#746,#747);
#592=AXIS2_PLACEMENT_3D('',#1006,#749,#750);
#593=AXIS2_PLACEMENT_3D('',#1007,#751,#752);
#594=AXIS2_PLACEMENT_3D('',#1008,#753,#754);
#595=AXIS2_PLACEMENT_3D('',#1009,#755,#756);
#596=AXIS2_PLACEMENT_3D('',#1010,#757,#758);
#597=AXIS2_PLACEMENT_3D('',#1012,#760,#761);
#598=AXIS2_PLACEMENT_3D('',#1013,#762,#763);
#599=DIRECTION('axis',(0.,0.,1.));
#600=DIRECTION('refdir',(1.,0.,0.));
#601=DIRECTION('center_axis',(0.866025403784438,-0.500000000000001,0.));
#602=DIRECTION('ref_axis',(0.500000000000001,0.866025403784438,0.));
#603=DIRECTION('center_axis',(0.500000000000001,0.866025403784438,0.));
#604=DIRECTION('ref_axis',(-0.866025403784438,0.500000000000001,0.));
#605=DIRECTION('center_axis',(0.866025403784438,-0.500000000000001,0.));
#606=DIRECTION('ref_axis',(0.500000000000001,0.866025403784438,0.));
#607=DIRECTION('center_axis',(-1.11022302462516E-16,5.55111512312578E-17,
1.));
#608=DIRECTION('ref_axis',(-0.866025403784438,0.500000000000001,-1.23903709934807E-16));
#609=DIRECTION('center_axis',(-1.11022302462516E-16,5.55111512312578E-17,
1.));
#610=DIRECTION('ref_axis',(-0.866025403784438,0.500000000000001,-1.23903709934807E-16));
#611=DIRECTION('center_axis',(0.500000000000001,0.866025403784438,0.));
#612=DIRECTION('ref_axis',(-0.866025403784438,0.500000000000001,0.));
#613=DIRECTION('center_axis',(-0.866025403784442,-0.499999999999995,0.));
#614=DIRECTION('ref_axis',(0.499999999999995,-0.866025403784441,0.));
#615=DIRECTION('center_axis',(-5.55111512312578E-16,-4.9960036108132E-16,
1.));
#616=DIRECTION('ref_axis',(-0.866025403784442,-0.499999999999995,-7.3054085213655E-16));
#617=DIRECTION('center_axis',(-5.55111512312578E-16,-4.9960036108132E-16,
1.));
#618=DIRECTION('ref_axis',(-0.866025403784442,-0.499999999999995,-7.3054085213655E-16));
#619=DIRECTION('center_axis',(-0.866025403784442,-0.499999999999995,0.));
#620=DIRECTION('ref_axis',(0.499999999999995,-0.866025403784442,0.));
#621=DIRECTION('center_axis',(-0.499999999999995,0.866025403784442,0.));
#622=DIRECTION('ref_axis',(-0.866025403784441,-0.499999999999995,0.));
#623=DIRECTION('center_axis',(-0.499999999999995,0.866025403784442,0.));
#624=DIRECTION('ref_axis',(-0.866025403784441,-0.499999999999995,0.));
#625=DIRECTION('center_axis',(-1.,0.,0.));
#626=DIRECTION('ref_axis',(0.,0.,1.));
#627=DIRECTION('center_axis',(0.,0.,1.));
#628=DIRECTION('ref_axis',(0.,-1.,0.));
#629=DIRECTION('center_axis',(0.,0.,1.));
#630=DIRECTION('ref_axis',(0.,-1.,0.));
#631=DIRECTION('center_axis',(-1.,0.,0.));
#632=DIRECTION('ref_axis',(0.,0.,1.));
#633=DIRECTION('center_axis',(0.,1.,0.));
#634=DIRECTION('ref_axis',(0.,0.,1.));
#635=DIRECTION('center_axis',(0.,0.,1.));
#636=DIRECTION('ref_axis',(-1.83697019872103E-16,-1.,0.));
#637=DIRECTION('center_axis',(0.,0.,1.));
#638=DIRECTION('ref_axis',(1.,0.,0.));
#639=DIRECTION('',(0.,0.,1.));
#640=DIRECTION('center_axis',(0.,0.,1.));
#641=DIRECTION('ref_axis',(1.,0.,0.));
#642=DIRECTION('',(0.,0.,1.));
#643=DIRECTION('center_axis',(5.73459059389406E-17,1.14691811877881E-16,
-1.));
#644=DIRECTION('ref_axis',(-6.57710585591566E-33,1.,1.14691811877881E-16));
#645=DIRECTION('',(5.73459059389406E-17,1.14691811877881E-16,-1.));
#646=DIRECTION('center_axis',(0.,0.,1.));
#647=DIRECTION('ref_axis',(1.,0.,0.));
#648=DIRECTION('center_axis',(-0.500000000000001,-0.866025403784438,0.));
#649=DIRECTION('ref_axis',(0.866025403784438,-0.500000000000001,0.));
#650=DIRECTION('center_axis',(0.500000000000001,0.866025403784438,0.));
#651=DIRECTION('ref_axis',(-0.866025381396501,0.49999998707432,-0.00022738233297422));
#652=DIRECTION('',(-0.500000000000001,-0.866025403784438,0.));
#653=DIRECTION('center_axis',(0.500000000000001,0.866025403784438,-1.00228467501176E-15));
#654=DIRECTION('ref_axis',(0.866025403784438,-0.500000000000001,2.93690997447507E-12));
#655=DIRECTION('center_axis',(-0.499999999999996,0.866025403784441,0.));
#656=DIRECTION('ref_axis',(-0.866025403784441,-0.499999999999996,0.));
#657=DIRECTION('',(-0.499999999999996,0.866025403784441,0.));
#658=DIRECTION('center_axis',(0.,0.,1.));
#659=DIRECTION('ref_axis',(1.,0.,0.));
#660=DIRECTION('center_axis',(0.,0.,-1.));
#661=DIRECTION('ref_axis',(1.,0.,0.));
#662=DIRECTION('',(0.,0.,1.));
#663=DIRECTION('center_axis',(0.,1.,0.));
#664=DIRECTION('ref_axis',(0.,0.,1.));
#665=DIRECTION('',(0.,1.,0.));
#666=DIRECTION('center_axis',(0.,0.,1.));
#667=DIRECTION('ref_axis',(1.,0.,0.));
#668=DIRECTION('center_axis',(0.,0.,-1.));
#669=DIRECTION('ref_axis',(1.,0.,0.));
#670=DIRECTION('',(0.,0.,1.));
#671=DIRECTION('center_axis',(0.500000000000001,0.866025403784438,0.));
#672=DIRECTION('ref_axis',(-0.866025403784438,0.500000000000001,0.));
#673=DIRECTION('',(0.500000000000001,0.866025403784438,0.));
#674=DIRECTION('center_axis',(0.,0.,-1.));
#675=DIRECTION('ref_axis',(-1.,0.,0.));
#676=DIRECTION('center_axis',(0.,0.,1.));
#677=DIRECTION('ref_axis',(1.,0.,0.));
#678=DIRECTION('',(0.,0.,1.));
#679=DIRECTION('center_axis',(0.,0.,1.));
#680=DIRECTION('ref_axis',(1.,0.,0.));
#681=DIRECTION('center_axis',(0.,0.,-1.));
#682=DIRECTION('ref_axis',(-1.,0.,0.));
#683=DIRECTION('center_axis',(0.,0.,1.));
#684=DIRECTION('ref_axis',(1.,0.,0.));
#685=DIRECTION('',(0.,0.,1.));
#686=DIRECTION('center_axis',(0.,0.,1.));
#687=DIRECTION('ref_axis',(1.,0.,0.));
#688=DIRECTION('center_axis',(0.,0.,-1.));
#689=DIRECTION('ref_axis',(-1.,0.,0.));
#690=DIRECTION('center_axis',(0.,0.,1.));
#691=DIRECTION('ref_axis',(1.,0.,0.));
#692=DIRECTION('',(0.,0.,1.));
#693=DIRECTION('center_axis',(0.,0.,1.));
#694=DIRECTION('ref_axis',(1.,0.,0.));
#695=DIRECTION('center_axis',(0.,0.,-1.));
#696=DIRECTION('ref_axis',(-1.,0.,0.));
#697=DIRECTION('center_axis',(0.,0.,1.));
#698=DIRECTION('ref_axis',(1.,0.,0.));
#699=DIRECTION('',(0.,0.,1.));
#700=DIRECTION('center_axis',(0.,0.,1.));
#701=DIRECTION('ref_axis',(1.,0.,0.));
#702=DIRECTION('center_axis',(0.,0.,-1.));
#703=DIRECTION('ref_axis',(-1.,0.,0.));
#704=DIRECTION('center_axis',(0.,0.,1.));
#705=DIRECTION('ref_axis',(1.,0.,0.));
#706=DIRECTION('',(0.,0.,1.));
#707=DIRECTION('center_axis',(0.,0.,1.));
#708=DIRECTION('ref_axis',(1.,0.,0.));
#709=DIRECTION('center_axis',(0.,0.,-1.));
#710=DIRECTION('ref_axis',(-1.,0.,0.));
#711=DIRECTION('center_axis',(0.,0.,1.));
#712=DIRECTION('ref_axis',(1.,0.,0.));
#713=DIRECTION('',(0.,0.,1.));
#714=DIRECTION('center_axis',(0.,0.,1.));
#715=DIRECTION('ref_axis',(1.,0.,0.));
#716=DIRECTION('center_axis',(0.,0.,-1.));
#717=DIRECTION('ref_axis',(-1.,0.,0.));
#718=DIRECTION('center_axis',(0.,0.,1.));
#719=DIRECTION('ref_axis',(1.,0.,0.));
#720=DIRECTION('',(0.,0.,-1.));
#721=DIRECTION('center_axis',(0.,0.,1.));
#722=DIRECTION('ref_axis',(1.,0.,0.));
#723=DIRECTION('center_axis',(0.,0.,-1.));
#724=DIRECTION('ref_axis',(-1.,0.,0.));
#725=DIRECTION('center_axis',(0.,0.,1.));
#726=DIRECTION('ref_axis',(1.,0.,0.));
#727=DIRECTION('',(0.,0.,-1.));
#728=DIRECTION('center_axis',(0.,0.,1.));
#729=DIRECTION('ref_axis',(1.,0.,0.));
#730=DIRECTION('center_axis',(0.,0.,-1.));
#731=DIRECTION('ref_axis',(-1.,0.,0.));
#732=DIRECTION('center_axis',(0.,0.,1.));
#733=DIRECTION('ref_axis',(1.,0.,0.));
#734=DIRECTION('',(0.,0.,-1.));
#735=DIRECTION('center_axis',(0.,0.,1.));
#736=DIRECTION('ref_axis',(1.,0.,0.));
#737=DIRECTION('center_axis',(0.,0.,-1.));
#738=DIRECTION('ref_axis',(-1.,0.,0.));
#739=DIRECTION('center_axis',(0.,0.,1.));
#740=DIRECTION('ref_axis',(1.,0.,0.));
#741=DIRECTION('',(0.,0.,1.));
#742=DIRECTION('center_axis',(0.,0.,1.));
#743=DIRECTION('ref_axis',(1.,0.,0.));
#744=DIRECTION('center_axis',(0.,0.,1.));
#745=DIRECTION('ref_axis',(1.,0.,0.));
#746=DIRECTION('center_axis',(0.,0.,1.));
#747=DIRECTION('ref_axis',(1.,0.,0.));
#748=DIRECTION('',(-1.,0.,0.));
#749=DIRECTION('center_axis',(0.,0.,1.));
#750=DIRECTION('ref_axis',(1.,0.,0.));
#751=DIRECTION('center_axis',(0.,0.,1.));
#752=DIRECTION('ref_axis',(1.,0.,0.));
#753=DIRECTION('center_axis',(0.,0.,1.));
#754=DIRECTION('ref_axis',(1.,0.,0.));
#755=DIRECTION('center_axis',(0.,0.,1.));
#756=DIRECTION('ref_axis',(1.,0.,0.));
#757=DIRECTION('center_axis',(0.,0.,1.));
#758=DIRECTION('ref_axis',(1.,0.,0.));
#759=DIRECTION('',(-1.,0.,0.));
#760=DIRECTION('center_axis',(0.,0.,1.));
#761=DIRECTION('ref_axis',(1.,0.,0.));
#762=DIRECTION('center_axis',(0.,1.,0.));
#763=DIRECTION('ref_axis',(0.,0.,1.));
#764=CARTESIAN_POINT('',(0.,0.,0.));
#765=CARTESIAN_POINT('Origin',(5.31249999999987,9.20151991520942,29.2501712646037));
#766=CARTESIAN_POINT('',(4.66298094716154,9.57651991520942,30.2501705367541));
#767=CARTESIAN_POINT('',(5.31249999999987,9.20151991520942,29.5001705367541));
#768=CARTESIAN_POINT('Origin',(5.31249999999987,9.20151991520942,30.2501705367541));
#769=CARTESIAN_POINT('',(5.18750036392464,8.98501419459949,29.2501712646037));
#770=CARTESIAN_POINT('Origin',(5.31249999999987,9.20151991520942,29.2501712646037));
#771=CARTESIAN_POINT('',(4.81250036392464,7.58549514176116,29.2501712646037));
#772=CARTESIAN_POINT('Origin',(4.81250036392464,8.33549514176117,29.2501712646037));
#773=CARTESIAN_POINT('Origin',(4.81250036392464,8.33549514176117,29.2501712646037));
#774=CARTESIAN_POINT('Origin',(5.31249999999987,9.20151991520942,30.2501705367541));
#775=CARTESIAN_POINT('Origin',(-5.31250000000046,9.20151991521058,20.45));
#776=CARTESIAN_POINT('',(-5.56250000000047,8.33549451142614,20.45));
#777=CARTESIAN_POINT('',(-5.18750000000046,8.98501356426447,20.45));
#778=CARTESIAN_POINT('Origin',(-4.81250000000047,8.33549451142614,20.45));
#779=CARTESIAN_POINT('Origin',(-4.81250000000047,8.33549451142614,20.45));
#780=CARTESIAN_POINT('',(-5.31250000000035,9.2015199152104,20.7000000000001));
#781=CARTESIAN_POINT('Origin',(-5.31250000000046,9.20151991521058,20.45));
#782=CARTESIAN_POINT('',(-4.66298094716202,9.5765199152104,21.4500000000003));
#783=CARTESIAN_POINT('Origin',(-5.31250000000035,9.2015199152104,21.4500000000001));
#784=CARTESIAN_POINT('Origin',(-5.31250000000035,9.2015199152104,21.4500000000001));
#785=CARTESIAN_POINT('Origin',(0.,10.625,11.45));
#786=CARTESIAN_POINT('',(-0.750000000000001,9.625,11.45));
#787=CARTESIAN_POINT('',(9.18485099360515E-17,10.375,11.45));
#788=CARTESIAN_POINT('Origin',(0.,9.625,11.45));
#789=CARTESIAN_POINT('Origin',(0.,9.625,11.45));
#790=CARTESIAN_POINT('',(9.18485099360515E-17,10.625,11.7));
#791=CARTESIAN_POINT('Origin',(9.18485099360515E-17,10.625,11.45));
#792=CARTESIAN_POINT('Origin',(0.,10.625,12.45));
#793=CARTESIAN_POINT('Origin',(0.,0.,0.));
#794=CARTESIAN_POINT('',(-2.,2.23606797749979,0.));
#795=CARTESIAN_POINT('',(2.,2.23606797749979,0.));
#796=CARTESIAN_POINT('Origin',(0.,0.,0.));
#797=CARTESIAN_POINT('',(-2.,2.23606797749979,34.));
#798=CARTESIAN_POINT('',(-2.,2.23606797749979,0.));
#799=CARTESIAN_POINT('',(2.,2.23606797749979,34.));
#800=CARTESIAN_POINT('Origin',(0.,0.,34.));
#801=CARTESIAN_POINT('',(2.,2.23606797749979,0.));
#802=CARTESIAN_POINT('Origin',(4.81250036392464,8.33549514176116,29.2501712646037));
#803=CARTESIAN_POINT('',(4.81250036392464,7.58549514176117,0.));
#804=CARTESIAN_POINT('',(4.81250036392464,7.58549514176116,29.2501712646037));
#805=CARTESIAN_POINT('Origin',(4.81250036392464,8.33549514176117,0.));
#806=CARTESIAN_POINT('Origin',(5.73775870940327,9.93808960625726,30.2501705367541));
#807=CARTESIAN_POINT('',(6.14951904444286,9.15127944647594,30.250000000004));
#808=CARTESIAN_POINT('',(4.85048095555716,9.90127943678169,30.250000000004));
#809=CARTESIAN_POINT('Origin',(5.50000000000001,9.52627944162882,30.2501705367541));
#810=CARTESIAN_POINT('',(5.08823965656494,10.3130896062573,30.2501705367541));
#811=CARTESIAN_POINT('Origin',(5.50000000000001,9.52627944162882,30.25));
#812=CARTESIAN_POINT('Origin',(-5.31250000000021,9.20151991521014,21.4500000000003));
#813=CARTESIAN_POINT('',(-5.08823965592586,10.3130896051505,21.4500000000003));
#814=CARTESIAN_POINT('',(-4.66298094716188,9.57651991521014,21.4500000000003));
#815=CARTESIAN_POINT('',(-6.38727776160253,9.56308960515051,21.4500000000003));
#816=CARTESIAN_POINT('Ctrl Pts',(-5.08823965592586,10.3130896051505,21.4500000000003));
#817=CARTESIAN_POINT('Ctrl Pts',(-5.08823965592586,10.3130896051505,21.355799615307));
#818=CARTESIAN_POINT('Ctrl Pts',(-5.10518781267724,10.3047817859699,21.2553386080908));
#819=CARTESIAN_POINT('Ctrl Pts',(-5.17379109419904,10.2705090414277,21.07056202788));
#820=CARTESIAN_POINT('Ctrl Pts',(-5.22541158680883,10.2444870700066,20.9862441838177));
#821=CARTESIAN_POINT('Ctrl Pts',(-5.34379495428332,10.1832360799613,20.8530956851766));
#822=CARTESIAN_POINT('Ctrl Pts',(-5.41845212357192,10.1439103657118,20.795380010295));
#823=CARTESIAN_POINT('Ctrl Pts',(-5.58078019636144,10.0555175561907,20.7188314284153));
#824=CARTESIAN_POINT('Ctrl Pts',(-5.66842012377311,10.0063923070211,20.7000000000003));
#825=CARTESIAN_POINT('Ctrl Pts',(-5.83157987622678,9.91219198002106,20.7000000000003));
#826=CARTESIAN_POINT('Ctrl Pts',(-5.91794355368073,9.86085620108154,20.7188314284153));
#827=CARTESIAN_POINT('Ctrl Pts',(-6.07565800863262,9.76447237105898,20.795380010295));
#828=CARTESIAN_POINT('Ctrl Pts',(-6.14704366083895,9.71948022300517,20.8530956851766));
#829=CARTESIAN_POINT('Ctrl Pts',(-6.25928025796244,9.6475827144094,20.9862441838177));
#830=CARTESIAN_POINT('Ctrl Pts',(-6.30762619257454,9.61588904216399,21.07056202788));
#831=CARTESIAN_POINT('Ctrl Pts',(-6.37160890076638,9.57361322985422,21.2553386080908));
#832=CARTESIAN_POINT('Ctrl Pts',(-6.38727776160253,9.56308960515052,21.355799615307));
#833=CARTESIAN_POINT('Ctrl Pts',(-6.38727776160253,9.56308960515052,21.4500000000003));
#834=CARTESIAN_POINT('Ctrl Pts',(-6.38727776160253,9.56308960515052,21.4500000000003));
#835=CARTESIAN_POINT('Ctrl Pts',(-6.38727776160253,9.56308960515052,21.5442003846935));
#836=CARTESIAN_POINT('Ctrl Pts',(-6.37160890076638,9.57361322985422,21.6446613919098));
#837=CARTESIAN_POINT('Ctrl Pts',(-6.30762619257454,9.61588904216399,21.8294379721206));
#838=CARTESIAN_POINT('Ctrl Pts',(-6.25928025796244,9.6475827144094,21.9137558161828));
#839=CARTESIAN_POINT('Ctrl Pts',(-6.14704366083895,9.71948022300517,22.046904314824));
#840=CARTESIAN_POINT('Ctrl Pts',(-6.07565800863262,9.76447237105898,22.1046199897055));
#841=CARTESIAN_POINT('Ctrl Pts',(-5.91794355368073,9.86085620108154,22.1811685715853));
#842=CARTESIAN_POINT('Ctrl Pts',(-5.83157987622678,9.91219198002106,22.2000000000003));
#843=CARTESIAN_POINT('Ctrl Pts',(-5.66842012377311,10.0063923070211,22.2000000000003));
#844=CARTESIAN_POINT('Ctrl Pts',(-5.58078019636144,10.0555175561907,22.1811685715853));
#845=CARTESIAN_POINT('Ctrl Pts',(-5.41845212357192,10.1439103657118,22.1046199897055));
#846=CARTESIAN_POINT('Ctrl Pts',(-5.34379495428332,10.1832360799613,22.046904314824));
#847=CARTESIAN_POINT('Ctrl Pts',(-5.22541158680883,10.2444870700066,21.9137558161828));
#848=CARTESIAN_POINT('Ctrl Pts',(-5.17379109419904,10.2705090414277,21.8294379721206));
#849=CARTESIAN_POINT('Ctrl Pts',(-5.10518781267724,10.3047817859699,21.6446613919098));
#850=CARTESIAN_POINT('Ctrl Pts',(-5.08823965592586,10.3130896051505,21.5442003846935));
#851=CARTESIAN_POINT('Ctrl Pts',(-5.08823965592586,10.3130896051505,21.4500000000003));
#852=CARTESIAN_POINT('Origin',(-4.81250000000047,8.33549451142614,-4.99999999999998));
#853=CARTESIAN_POINT('',(-5.56250000000047,8.33549451142614,0.));
#854=CARTESIAN_POINT('Origin',(-4.81250000000047,8.33549451142614,0.));
#855=CARTESIAN_POINT('',(-5.56250000000047,8.33549451142614,-4.99999999999998));
#856=CARTESIAN_POINT('Origin',(0.,10.625,12.45));
#857=CARTESIAN_POINT('',(-9.18485099360516E-17,11.5,11.7));
#858=CARTESIAN_POINT('',(-9.18485099360516E-17,10.625,11.7));
#859=CARTESIAN_POINT('',(9.8730549918165E-17,11.5,13.2));
#860=CARTESIAN_POINT('Ctrl Pts',(-2.68882138776405E-16,11.5,11.7));
#861=CARTESIAN_POINT('Ctrl Pts',(-0.0942003270000352,11.5,11.7));
#862=CARTESIAN_POINT('Ctrl Pts',(-0.194661355109166,11.4987237500423,11.718831428415));
#863=CARTESIAN_POINT('Ctrl Pts',(-0.379437994652802,11.4941101322047,11.7953800102948));
#864=CARTESIAN_POINT('Ctrl Pts',(-0.463755856956105,11.4908386151224,11.8530956851763));
#865=CARTESIAN_POINT('Ctrl Pts',(-0.596904355597251,11.4846918447714,11.9862441838174));
#866=CARTESIAN_POINT('Ctrl Pts',(-0.654619999263739,11.4814172867737,12.0705620278797));
#867=CARTESIAN_POINT('Ctrl Pts',(-0.731168556115679,11.4767967134437,12.2553386080905));
#868=CARTESIAN_POINT('Ctrl Pts',(-0.750000000000001,11.4755174175285,12.3557996153068));
#869=CARTESIAN_POINT('Ctrl Pts',(-0.750000000000001,11.4755174175285,12.5442003846932));
#870=CARTESIAN_POINT('Ctrl Pts',(-0.731168556115679,11.4767967134437,12.6446613919095));
#871=CARTESIAN_POINT('Ctrl Pts',(-0.654619999263739,11.4814172867737,12.8294379721203));
#872=CARTESIAN_POINT('Ctrl Pts',(-0.596904355597251,11.4846918447714,12.9137558161826));
#873=CARTESIAN_POINT('Ctrl Pts',(-0.463755856956105,11.4908386151224,13.0469043148237));
#874=CARTESIAN_POINT('Ctrl Pts',(-0.379437994652804,11.4941101322047,13.1046199897052));
#875=CARTESIAN_POINT('Ctrl Pts',(-0.194661355109167,11.4987237500423,13.181168571585));
#876=CARTESIAN_POINT('Ctrl Pts',(-0.0942003270000352,11.5,13.2));
#877=CARTESIAN_POINT('Ctrl Pts',(0.,11.5,13.2));
#878=CARTESIAN_POINT('Ctrl Pts',(0.,11.5,13.2));
#879=CARTESIAN_POINT('Ctrl Pts',(0.0942003270000352,11.5,13.2));
#880=CARTESIAN_POINT('Ctrl Pts',(0.194661355109168,11.4987237500423,13.181168571585));
#881=CARTESIAN_POINT('Ctrl Pts',(0.379437994652804,11.4941101322047,13.1046199897052));
#882=CARTESIAN_POINT('Ctrl Pts',(0.463755856956105,11.4908386151224,13.0469043148237));
#883=CARTESIAN_POINT('Ctrl Pts',(0.596904355597251,11.4846918447714,12.9137558161826));
#884=CARTESIAN_POINT('Ctrl Pts',(0.654619999263739,11.4814172867737,12.8294379721203));
#885=CARTESIAN_POINT('Ctrl Pts',(0.731168556115679,11.4767967134437,12.6446613919095));
#886=CARTESIAN_POINT('Ctrl Pts',(0.750000000000001,11.4755174175285,12.5442003846932));
#887=CARTESIAN_POINT('Ctrl Pts',(0.750000000000001,11.4755174175285,12.45));
#888=CARTESIAN_POINT('Ctrl Pts',(0.750000000000001,11.4755174175285,12.3557996153068));
#889=CARTESIAN_POINT('Ctrl Pts',(0.731168556115679,11.4767967134437,12.2553386080905));
#890=CARTESIAN_POINT('Ctrl Pts',(0.654619999263739,11.4814172867737,12.0705620278797));
#891=CARTESIAN_POINT('Ctrl Pts',(0.596904355597251,11.4846918447714,11.9862441838174));
#892=CARTESIAN_POINT('Ctrl Pts',(0.463755856956105,11.4908386151224,11.8530956851763));
#893=CARTESIAN_POINT('Ctrl Pts',(0.379437994652803,11.4941101322047,11.7953800102948));
#894=CARTESIAN_POINT('Ctrl Pts',(0.194661355109166,11.4987237500423,11.718831428415));
#895=CARTESIAN_POINT('Ctrl Pts',(0.0942003270000351,11.5,11.7));
#896=CARTESIAN_POINT('Ctrl Pts',(-2.68882138776405E-16,11.5,11.7));
#897=CARTESIAN_POINT('Origin',(0.,9.625,-4.));
#898=CARTESIAN_POINT('',(-0.750000000000001,9.625,0.));
#899=CARTESIAN_POINT('Origin',(0.,9.625,0.));
#900=CARTESIAN_POINT('',(-0.750000000000001,9.625,-4.));
#901=CARTESIAN_POINT('Origin',(5.50000000000001,9.52627944162882,30.25));
#902=CARTESIAN_POINT('',(6.38727776160259,9.56308960515047,30.25));
#903=CARTESIAN_POINT('',(6.14951905283834,9.15127944162881,30.25));
#904=CARTESIAN_POINT('',(6.38727773489095,9.56308962299142,30.2497807123726));
#905=CARTESIAN_POINT('Ctrl Pts',(6.38727773488711,9.56308962299399,30.2497807123725));
#906=CARTESIAN_POINT('Ctrl Pts',(6.38727775269835,9.5630896110977,30.2498538120133));
#907=CARTESIAN_POINT('Ctrl Pts',(6.38727776160259,9.56308960515047,30.2499269078914));
#908=CARTESIAN_POINT('Ctrl Pts',(6.38727776160259,9.56308960515047,30.25));
#909=CARTESIAN_POINT('Ctrl Pts',(6.38727776160259,9.56308960515047,30.25));
#910=CARTESIAN_POINT('Ctrl Pts',(6.38727776160259,9.56308960515047,30.3442003846932));
#911=CARTESIAN_POINT('Ctrl Pts',(6.37160890076645,9.57361322985418,30.4446613919095));
#912=CARTESIAN_POINT('Ctrl Pts',(6.30762619257461,9.61588904216394,30.6294379721203));
#913=CARTESIAN_POINT('Ctrl Pts',(6.2592802579625,9.64758271440935,30.7137558161826));
#914=CARTESIAN_POINT('Ctrl Pts',(6.14704366083901,9.71948022300512,30.8469043148237));
#915=CARTESIAN_POINT('Ctrl Pts',(6.07565800863269,9.76447237105893,30.9046199897052));
#916=CARTESIAN_POINT('Ctrl Pts',(5.9179435536808,9.8608562010815,30.981168571585));
#917=CARTESIAN_POINT('Ctrl Pts',(5.83157987622684,9.91219198002102,31.));
#918=CARTESIAN_POINT('Ctrl Pts',(5.66842012377318,10.0063923070211,31.));
#919=CARTESIAN_POINT('Ctrl Pts',(5.58078019636151,10.0555175561907,30.981168571585));
#920=CARTESIAN_POINT('Ctrl Pts',(5.41845212357198,10.1439103657117,30.9046199897052));
#921=CARTESIAN_POINT('Ctrl Pts',(5.34379495428339,10.1832360799612,30.8469043148237));
#922=CARTESIAN_POINT('Ctrl Pts',(5.2254115868089,10.2444870700066,30.7137558161826));
#923=CARTESIAN_POINT('Ctrl Pts',(5.17379109419911,10.2705090414277,30.6294379721203));
#924=CARTESIAN_POINT('Ctrl Pts',(5.10518781267731,10.3047817859699,30.4446613919095));
#925=CARTESIAN_POINT('Ctrl Pts',(5.08823965592593,10.3130896051505,30.3442003846932));
#926=CARTESIAN_POINT('Ctrl Pts',(5.08823965592593,10.3130896051505,30.1557996153068));
#927=CARTESIAN_POINT('Ctrl Pts',(5.10518781267731,10.3047817859699,30.0553386080905));
#928=CARTESIAN_POINT('Ctrl Pts',(5.17379109419911,10.2705090414277,29.8705620278797));
#929=CARTESIAN_POINT('Ctrl Pts',(5.2254115868089,10.2444870700066,29.7862441838174));
#930=CARTESIAN_POINT('Ctrl Pts',(5.34379495428339,10.1832360799612,29.6530956851763));
#931=CARTESIAN_POINT('Ctrl Pts',(5.41845212357198,10.1439103657117,29.5953800102948));
#932=CARTESIAN_POINT('Ctrl Pts',(5.58078019636151,10.0555175561907,29.518831428415));
#933=CARTESIAN_POINT('Ctrl Pts',(5.66842012377318,10.0063923070211,29.5));
#934=CARTESIAN_POINT('Ctrl Pts',(5.83157987622684,9.91219198002102,29.5));
#935=CARTESIAN_POINT('Ctrl Pts',(5.9179435536808,9.8608562010815,29.518831428415));
#936=CARTESIAN_POINT('Ctrl Pts',(6.07565800863269,9.76447237105893,29.5953800102948));
#937=CARTESIAN_POINT('Ctrl Pts',(6.14704366083901,9.71948022300512,29.6530956851763));
#938=CARTESIAN_POINT('Ctrl Pts',(6.2592802579625,9.64758271440935,29.7862441838174));
#939=CARTESIAN_POINT('Ctrl Pts',(6.30762619257461,9.61588904216394,29.8705620278797));
#940=CARTESIAN_POINT('Ctrl Pts',(6.37158407798535,9.57362963121111,30.0552669220251));
#941=CARTESIAN_POINT('Ctrl Pts',(6.38725479775308,9.5631049429221,30.1556437199363));
#942=CARTESIAN_POINT('Ctrl Pts',(6.38727773488711,9.56308962299399,30.2497807123725));
#943=CARTESIAN_POINT('Origin',(0.,0.,34.));
#944=CARTESIAN_POINT('',(12.5,-1.53080849893419E-15,32.));
#945=CARTESIAN_POINT('Origin',(0.,0.,32.));
#946=CARTESIAN_POINT('',(12.5,-1.53080849893419E-15,34.));
#947=CARTESIAN_POINT('',(12.5,-1.53080849893419E-15,34.));
#948=CARTESIAN_POINT('Origin',(0.,0.,34.));
#949=CARTESIAN_POINT('Origin',(0.,0.,32.));
#950=CARTESIAN_POINT('',(11.5,-1.40834381901946E-15,24.));
#951=CARTESIAN_POINT('Origin',(0.,0.,24.));
#952=CARTESIAN_POINT('',(11.5,-1.40834381901946E-15,32.));
#953=CARTESIAN_POINT('',(11.5,-1.40834381901946E-15,32.));
#954=CARTESIAN_POINT('Origin',(0.,0.,32.));
#955=CARTESIAN_POINT('Origin',(0.,0.,24.));
#956=CARTESIAN_POINT('',(12.5,-1.53080849893419E-15,23.));
#957=CARTESIAN_POINT('Origin',(0.,0.,23.));
#958=CARTESIAN_POINT('',(12.5,-1.53080849893419E-15,24.));
#959=CARTESIAN_POINT('',(12.5,-1.53080849893419E-15,24.));
#960=CARTESIAN_POINT('Origin',(0.,0.,24.));
#961=CARTESIAN_POINT('Origin',(0.,0.,23.));
#962=CARTESIAN_POINT('',(11.5,-1.40834381901946E-15,15.));
#963=CARTESIAN_POINT('Origin',(0.,0.,15.));
#964=CARTESIAN_POINT('',(11.5,-1.40834381901946E-15,23.));
#965=CARTESIAN_POINT('',(11.5,-1.40834381901946E-15,23.));
#966=CARTESIAN_POINT('Origin',(0.,0.,23.));
#967=CARTESIAN_POINT('Origin',(0.,0.,15.));
#968=CARTESIAN_POINT('',(12.5,-1.53080849893419E-15,14.));
#969=CARTESIAN_POINT('Origin',(0.,0.,14.));
#970=CARTESIAN_POINT('',(12.5,-1.53080849893419E-15,15.));
#971=CARTESIAN_POINT('',(12.5,-1.53080849893419E-15,15.));
#972=CARTESIAN_POINT('Origin',(0.,0.,15.));
#973=CARTESIAN_POINT('Origin',(0.,0.,14.));
#974=CARTESIAN_POINT('',(11.5,-1.40834381901946E-15,6.));
#975=CARTESIAN_POINT('Origin',(0.,0.,6.));
#976=CARTESIAN_POINT('',(11.5,-1.40834381901946E-15,14.));
#977=CARTESIAN_POINT('',(11.5,-1.40834381901946E-15,14.));
#978=CARTESIAN_POINT('Origin',(0.,0.,14.));
#979=CARTESIAN_POINT('Origin',(-17.3205080756879,-10.0000000000005,6.));
#980=CARTESIAN_POINT('',(-15.7205080756868,-10.0000000000005,6.));
#981=CARTESIAN_POINT('Origin',(-17.3205080756879,-10.0000000000005,6.));
#982=CARTESIAN_POINT('',(-15.7205080756868,-10.0000000000005,0.));
#983=CARTESIAN_POINT('',(-15.7205080756868,-10.0000000000005,6.));
#984=CARTESIAN_POINT('Origin',(-17.3205080756879,-10.0000000000005,0.));
#985=CARTESIAN_POINT('Origin',(17.3205080756896,-9.99999999999951,6.));
#986=CARTESIAN_POINT('',(18.9205080756904,-9.99999999999951,6.));
#987=CARTESIAN_POINT('Origin',(17.3205080756896,-9.99999999999951,6.));
#988=CARTESIAN_POINT('',(18.9205080756904,-9.99999999999951,0.));
#989=CARTESIAN_POINT('',(18.9205080756904,-9.99999999999951,6.));
#990=CARTESIAN_POINT('Origin',(17.3205080756896,-9.99999999999951,0.));
#991=CARTESIAN_POINT('Origin',(0.,20.,6.));
#992=CARTESIAN_POINT('',(1.6,20.,6.));
#993=CARTESIAN_POINT('Origin',(0.,20.,6.));
#994=CARTESIAN_POINT('',(1.6,20.,0.));
#995=CARTESIAN_POINT('',(1.6,20.,6.));
#996=CARTESIAN_POINT('Origin',(0.,20.,0.));
#997=CARTESIAN_POINT('Origin',(0.,0.,6.));
#998=CARTESIAN_POINT('',(29.,-3.55147571752732E-15,0.));
#999=CARTESIAN_POINT('Origin',(0.,0.,0.));
#1000=CARTESIAN_POINT('',(29.,-3.55147571752732E-15,6.));
#1001=CARTESIAN_POINT('',(29.,-3.55147571752732E-15,6.));
#1002=CARTESIAN_POINT('Origin',(0.,0.,6.));
#1003=CARTESIAN_POINT('Origin',(0.,0.,6.));
#1004=CARTESIAN_POINT('Origin',(0.,0.,0.));
#1005=CARTESIAN_POINT('',(2.,2.23606797749979,0.));
#1006=CARTESIAN_POINT('Origin',(0.,0.,15.));
#1007=CARTESIAN_POINT('Origin',(0.,0.,14.));
#1008=CARTESIAN_POINT('Origin',(0.,0.,24.));
#1009=CARTESIAN_POINT('Origin',(0.,0.,23.));
#1010=CARTESIAN_POINT('Origin',(0.,0.,34.));
#1011=CARTESIAN_POINT('',(2.,2.23606797749979,34.));
#1012=CARTESIAN_POINT('Origin',(0.,0.,32.));
#1013=CARTESIAN_POINT('Origin',(2.,2.23606797749979,0.));
#1014=UNCERTAINTY_MEASURE_WITH_UNIT(LENGTH_MEASURE(0.01),#1018,
'DISTANCE_ACCURACY_VALUE',
'Maximum model space distance between geometric entities at asserted c
onnectivities');
#1015=UNCERTAINTY_MEASURE_WITH_UNIT(LENGTH_MEASURE(0.01),#1018,
'DISTANCE_ACCURACY_VALUE',
'Maximum model space distance between geometric entities at asserted c
onnectivities');
#1016=(
GEOMETRIC_REPRESENTATION_CONTEXT(3)
GLOBAL_UNCERTAINTY_ASSIGNED_CONTEXT((#1014))
GLOBAL_UNIT_ASSIGNED_CONTEXT((#1018,#1020,#1021))
REPRESENTATION_CONTEXT('','3D')
);
#1017=(
GEOMETRIC_REPRESENTATION_CONTEXT(3)
GLOBAL_UNCERTAINTY_ASSIGNED_CONTEXT((#1015))
GLOBAL_UNIT_ASSIGNED_CONTEXT((#1018,#1020,#1021))
REPRESENTATION_CONTEXT('','3D')
);
#1018=(
LENGTH_UNIT()
NAMED_UNIT(*)
SI_UNIT(.MILLI.,.METRE.)
);
#1019=(
LENGTH_UNIT()
NAMED_UNIT(*)
SI_UNIT($,.METRE.)
);
#1020=(
NAMED_UNIT(*)
PLANE_ANGLE_UNIT()
SI_UNIT($,.RADIAN.)
);
#1021=(
NAMED_UNIT(*)
SI_UNIT($,.STERADIAN.)
SOLID_ANGLE_UNIT()
);
#1022=SHAPE_DEFINITION_REPRESENTATION(#1023,#1024);
#1023=PRODUCT_DEFINITION_SHAPE('',$,#1026);
#1024=SHAPE_REPRESENTATION('',(#527),#1016);
#1025=PRODUCT_DEFINITION_CONTEXT('part definition',#1030,'design');
#1026=PRODUCT_DEFINITION('COUPLING-_mini_project[1]',
'COUPLING-_mini_project[1] v1',#1027,#1025);
#1027=PRODUCT_DEFINITION_FORMATION('',$,#1032);
#1028=PRODUCT_RELATED_PRODUCT_CATEGORY('COUPLING-_mini_project[1] v1',
'COUPLING-_mini_project[1] v1',(#1032));
#1029=APPLICATION_PROTOCOL_DEFINITION('international standard',
'automotive_design',2009,#1030);
#1030=APPLICATION_CONTEXT(
'Core Data for Automotive Mechanical Design Process');
#1031=PRODUCT_CONTEXT('part definition',#1030,'mechanical');
#1032=PRODUCT('COUPLING-_mini_project[1]',
'COUPLING-_mini_project[1] v1','STEP AP214',(#1031));
#1033=PRESENTATION_STYLE_ASSIGNMENT((#1035));
#1034=PRESENTATION_STYLE_ASSIGNMENT((#1036));
#1035=SURFACE_STYLE_USAGE(.BOTH.,#1037);
#1036=SURFACE_STYLE_USAGE(.BOTH.,#1038);
#1037=SURFACE_SIDE_STYLE('',(#1039));
#1038=SURFACE_SIDE_STYLE('',(#1040));
#1039=SURFACE_STYLE_FILL_AREA(#1041);
#1040=SURFACE_STYLE_FILL_AREA(#1042);
#1041=FILL_AREA_STYLE('Steel - Satin',(#1043));
#1042=FILL_AREA_STYLE('Opaque(202,209,238)',(#1044));
#1043=FILL_AREA_STYLE_COLOUR('Steel - Satin',#1045);
#1044=FILL_AREA_STYLE_COLOUR('Opaque(202,209,238)',#1046);
#1045=COLOUR_RGB('Steel - Satin',0.627450980392157,0.627450980392157,0.627450980392157);
#1046=COLOUR_RGB('Opaque(202,209,238)',0.792156862745098,0.819607843137255,
0.933333333333333);
ENDSEC;
END-ISO-10303-21;
